<mxfile host="app.diagrams.net" agent="Mozilla/5.0 (Macintosh; Intel Mac OS X 10_15_7) AppleWebKit/537.36 (KHTML, like Gecko) Chrome/127.0.0.0 Safari/537.36" version="24.7.7">
  <diagram name="Page-1" id="553RnGQErQ47vdQhfNCR">
    <mxGraphModel dx="1943" dy="634" grid="1" gridSize="10" guides="1" tooltips="1" connect="1" arrows="1" fold="1" page="1" pageScale="1" pageWidth="850" pageHeight="1100" math="0" shadow="0">
      <root>
        <mxCell id="0" />
        <mxCell id="1" parent="0" />
        <mxCell id="tgdKUG2FUSSfPLeAbKVj-16" style="edgeStyle=orthogonalEdgeStyle;rounded=0;orthogonalLoop=1;jettySize=auto;html=1;exitX=0.5;exitY=1;exitDx=0;exitDy=0;" edge="1" parent="1" source="tgdKUG2FUSSfPLeAbKVj-1" target="tgdKUG2FUSSfPLeAbKVj-2">
          <mxGeometry relative="1" as="geometry">
            <Array as="points">
              <mxPoint x="420" y="360" />
              <mxPoint x="60" y="360" />
            </Array>
          </mxGeometry>
        </mxCell>
        <mxCell id="tgdKUG2FUSSfPLeAbKVj-17" value="Deploy" style="edgeLabel;html=1;align=center;verticalAlign=middle;resizable=0;points=[];" vertex="1" connectable="0" parent="tgdKUG2FUSSfPLeAbKVj-16">
          <mxGeometry x="-0.8884" y="1" relative="1" as="geometry">
            <mxPoint as="offset" />
          </mxGeometry>
        </mxCell>
        <mxCell id="tgdKUG2FUSSfPLeAbKVj-1" value="Quest Deployment Contract" style="rounded=1;whiteSpace=wrap;html=1;" vertex="1" parent="1">
          <mxGeometry x="320" y="120" width="200" height="60" as="geometry" />
        </mxCell>
        <mxCell id="tgdKUG2FUSSfPLeAbKVj-20" style="edgeStyle=orthogonalEdgeStyle;rounded=0;orthogonalLoop=1;jettySize=auto;html=1;exitX=0.25;exitY=0;exitDx=0;exitDy=0;entryX=0;entryY=0.3333333333333333;entryDx=0;entryDy=0;entryPerimeter=0;" edge="1" parent="1" source="tgdKUG2FUSSfPLeAbKVj-2" target="tgdKUG2FUSSfPLeAbKVj-18">
          <mxGeometry relative="1" as="geometry">
            <mxPoint x="229.99999999999977" y="130" as="targetPoint" />
          </mxGeometry>
        </mxCell>
        <mxCell id="tgdKUG2FUSSfPLeAbKVj-21" value="program_id" style="edgeLabel;html=1;align=center;verticalAlign=middle;resizable=0;points=[];" vertex="1" connectable="0" parent="tgdKUG2FUSSfPLeAbKVj-20">
          <mxGeometry x="0.4643" y="2" relative="1" as="geometry">
            <mxPoint as="offset" />
          </mxGeometry>
        </mxCell>
        <mxCell id="tgdKUG2FUSSfPLeAbKVj-2" value="Information Quest Contract" style="rounded=1;whiteSpace=wrap;html=1;" vertex="1" parent="1">
          <mxGeometry x="-40" y="410" width="200" height="60" as="geometry" />
        </mxCell>
        <mxCell id="tgdKUG2FUSSfPLeAbKVj-3" value="Skill Quest Contract" style="rounded=1;whiteSpace=wrap;html=1;" vertex="1" parent="1">
          <mxGeometry x="200" y="410" width="200" height="60" as="geometry" />
        </mxCell>
        <mxCell id="tgdKUG2FUSSfPLeAbKVj-4" value="Hacking Quest Contract" style="rounded=1;whiteSpace=wrap;html=1;" vertex="1" parent="1">
          <mxGeometry x="440" y="410" width="200" height="60" as="geometry" />
        </mxCell>
        <mxCell id="tgdKUG2FUSSfPLeAbKVj-5" value="Marketing Quest Contract" style="rounded=1;whiteSpace=wrap;html=1;" vertex="1" parent="1">
          <mxGeometry x="680" y="410" width="200" height="60" as="geometry" />
        </mxCell>
        <mxCell id="tgdKUG2FUSSfPLeAbKVj-8" value="Services" style="rounded=0;whiteSpace=wrap;html=1;fillColor=#fff2cc;strokeColor=#d6b656;" vertex="1" parent="1">
          <mxGeometry x="260" y="200" width="120" height="30" as="geometry" />
        </mxCell>
        <mxCell id="tgdKUG2FUSSfPLeAbKVj-9" value="Queries" style="rounded=0;whiteSpace=wrap;html=1;fillColor=#d5e8d4;strokeColor=#82b366;" vertex="1" parent="1">
          <mxGeometry x="460" y="200" width="120" height="30" as="geometry" />
        </mxCell>
        <mxCell id="tgdKUG2FUSSfPLeAbKVj-10" value="&lt;ul&gt;&lt;li&gt;deploy_information_quest&lt;/li&gt;&lt;li&gt;deploy_skill_quest&lt;/li&gt;&lt;li&gt;deploy_hacking_quest&lt;/li&gt;&lt;li&gt;deploy_marketing_quest&lt;/li&gt;&lt;/ul&gt;" style="text;html=1;align=left;verticalAlign=middle;resizable=0;points=[];autosize=1;strokeColor=none;fillColor=none;" vertex="1" parent="1">
          <mxGeometry x="230" y="230" width="200" height="100" as="geometry" />
        </mxCell>
        <mxCell id="tgdKUG2FUSSfPLeAbKVj-11" value="&lt;ul&gt;&lt;li&gt;deployed_total_quests&lt;/li&gt;&lt;li&gt;deployed_information_quests&lt;/li&gt;&lt;li&gt;deployed_skill_quests&lt;/li&gt;&lt;li&gt;deployed_hacking_quests&lt;/li&gt;&lt;li&gt;deployed_marketing_quests&lt;/li&gt;&lt;/ul&gt;" style="text;html=1;align=left;verticalAlign=middle;resizable=0;points=[];autosize=1;strokeColor=none;fillColor=none;" vertex="1" parent="1">
          <mxGeometry x="430" y="230" width="220" height="110" as="geometry" />
        </mxCell>
        <mxCell id="tgdKUG2FUSSfPLeAbKVj-12" value="Services" style="rounded=0;whiteSpace=wrap;html=1;fillColor=#fff2cc;strokeColor=#d6b656;" vertex="1" parent="1">
          <mxGeometry x="-40" y="480" width="80" height="30" as="geometry" />
        </mxCell>
        <mxCell id="tgdKUG2FUSSfPLeAbKVj-13" value="&lt;ul&gt;&lt;li&gt;submit&lt;/li&gt;&lt;li&gt;decide&lt;/li&gt;&lt;li&gt;retract&lt;/li&gt;&lt;/ul&gt;" style="text;html=1;align=left;verticalAlign=middle;resizable=0;points=[];autosize=1;strokeColor=none;fillColor=none;" vertex="1" parent="1">
          <mxGeometry x="-70" y="510" width="100" height="80" as="geometry" />
        </mxCell>
        <mxCell id="tgdKUG2FUSSfPLeAbKVj-14" value="Queries" style="rounded=0;whiteSpace=wrap;html=1;fillColor=#d5e8d4;strokeColor=#82b366;" vertex="1" parent="1">
          <mxGeometry x="80" y="480" width="80" height="30" as="geometry" />
        </mxCell>
        <mxCell id="tgdKUG2FUSSfPLeAbKVj-15" value="&lt;ul&gt;&lt;li&gt;&lt;br&gt;&lt;/li&gt;&lt;/ul&gt;" style="text;html=1;align=left;verticalAlign=middle;resizable=0;points=[];autosize=1;strokeColor=none;fillColor=none;" vertex="1" parent="1">
          <mxGeometry x="50" y="510" width="60" height="50" as="geometry" />
        </mxCell>
        <mxCell id="tgdKUG2FUSSfPLeAbKVj-19" style="edgeStyle=orthogonalEdgeStyle;rounded=0;orthogonalLoop=1;jettySize=auto;html=1;exitX=0.5;exitY=0.5;exitDx=0;exitDy=0;exitPerimeter=0;entryX=0.5;entryY=0;entryDx=0;entryDy=0;" edge="1" parent="1" source="tgdKUG2FUSSfPLeAbKVj-18" target="tgdKUG2FUSSfPLeAbKVj-1">
          <mxGeometry relative="1" as="geometry" />
        </mxCell>
        <mxCell id="tgdKUG2FUSSfPLeAbKVj-18" value="Actor" style="shape=umlActor;verticalLabelPosition=bottom;verticalAlign=top;html=1;outlineConnect=0;" vertex="1" parent="1">
          <mxGeometry x="410" y="20" width="20" height="30" as="geometry" />
        </mxCell>
      </root>
    </mxGraphModel>
  </diagram>
</mxfile>
